# xmcd
#
# Track frame offsets:
#	150
#	16357
#	34447
#	46352
#	63355
#	79317
#	93060
#	108600
#	120342
#	137660
#	153610
#	170912
#	188452
#	205635
#	220325
#	237185
#	254775
#	270217
#	292787
#
# Disc length: 4100
#
# Revision: 1
# Processed by: cddbd v1.5.1PL0 Copyright (c) Steve Scherf et al.
# Submitted via: VisiTrax 2.9.5.180 - For more info visit www.synapsa.com
# Normalized: r0:DSETVAR1
#
DISCID=0a100213
DTITLE=Various Artist - CDX 154 February 1997
DYEAR=1997
DGENRE=
TTITLE0=Royal Wade Kimes - Another man's sky
TTITLE1=Mila Mason - Dark horse
TTITLE2=Emilio - I'd love you to love me
TTITLE3=Trisha Yearwood - I need you
TTITLE4=Mary Chapin Carpenter - I want to be your girlfriend
TTITLE5=Mark Chesnutt - Let it rain
TTITLE6=BR5-49 - Little ramona
TTITLE7=Three Hanks - Moanin' the blues
TTITLE8=Collin Raye - On the verge
TTITLE9=Bekka and Billy - Patient heart
TTITLE10=Randy Travis - Price to pay
TTITLE11=Burnin' Daylight - Sa yes
TTITLE12=Crystal Bernard - State of mind
TTITLE13=Jack Ingram - That's not me
TTITLE14=Aaron Tippin - That's what happens when I hold you
TTITLE15=Western Flyer - Wish you were here
TTITLE16=Great Divide - Never could
TTITLE17=Mila Mason - Dark horse
TTITLE18=Cledus T Judd - Cledus went down to Florida
EXTD=
EXTT0=
EXTT1=
EXTT2=
EXTT3=
EXTT4=
EXTT5=
EXTT6=
EXTT7=
EXTT8=
EXTT9=
EXTT10=
EXTT11=
EXTT12=
EXTT13=
EXTT14=
EXTT15=
EXTT16=
EXTT17=
EXTT18=
PLAYORDER=
